<?xml version="1.0" encoding="utf-8"?>
<!-- Generator: Adobe Illustrator 18.1.1, SVG Export Plug-In . SVG Version: 6.00 Build 0)  -->
<svg version="1.1" id="Layer_1" xmlns="http://www.w3.org/2000/svg" xmlns:xlink="http://www.w3.org/1999/xlink" x="0px" y="0px"
	 width="150px" height="55px" viewBox="0 0 150 55" enable-background="new 0 0 150 55" xml:space="preserve">
<g>
	<path fill="#003469" d="M68.7,46.4c0-1.9,0-2.9,0-2.9l0,0c0,0-0.4,0.7-0.8,1.4l-0.8,1.4H66L65.3,45c-0.4-0.7-0.8-1.5-0.8-1.5l0,0
		c0,0,0,1,0,2.9v2h-2v-8.2h2.1l2.1,3.7l0,0l2.1-3.7h2v8.2h-2L68.7,46.4L68.7,46.4z"/>
	<path fill="#003469" d="M76,40.1c2.5,0,4.3,1.8,4.3,4.2c0,2.5-1.8,4.2-4.3,4.2s-4.3-1.7-4.3-4.2C71.7,41.9,73.5,40.1,76,40.1
		 M76,46.7c1.4,0,2.3-0.9,2.3-2.4s-1-2.4-2.3-2.4c-1.4,0-2.3,0.9-2.3,2.4S74.6,46.7,76,46.7"/>
	<path fill="#003469" d="M83.3,48.4l-2.9-8.2h2.2l1.3,3.9c0.5,1.5,0.7,2.2,0.7,2.2l0,0c0,0,0.2-0.7,0.7-2.2l1.3-3.9h2.1l-2.9,8.2
		H83.3z"/>
	<rect x="89.5" y="40.3" fill="#003469" width="2" height="8.2"/>
	<path fill="#003469" d="M94.8,43.6L94.8,43.6c0,0,0,1,0,2.1v2.8h-2v-8.2h2l3.5,4.8l0,0c0,0,0-1.1,0-1.9v-2.8h2v8.2h-2L94.8,43.6z"
		/>
	<path fill="#003469" d="M107.7,48.4c0-0.5,0-0.5,0-0.6l0,0c-0.5,0.4-1.4,0.7-2.3,0.7c-2.3,0-4.2-1.7-4.2-4.3c0-2.5,1.8-4.2,4.2-4.2
		c1.9,0,3.3,1,3.8,2.4l-1.9,0.5c-0.3-0.5-0.9-1-2-1c-1.3,0-2.2,1-2.2,2.4s0.9,2.4,2.4,2.4c1.1,0,1.8-0.5,2.1-0.8v-0.4h-2.1v-1.8h3.9
		v4.7C109.4,48.4,107.7,48.4,107.7,48.4z"/>
	<path fill="#003469" d="M119.8,46.4c0-1.9,0-2.9,0-2.9l0,0c0,0-0.4,0.7-0.8,1.4l-0.8,1.4h-1.1l-0.8-1.4c-0.4-0.7-0.8-1.5-0.8-1.5
		l0,0c0,0,0,1,0,2.9v2h-2v-8.2h2.1l2.1,3.7l0,0l2.1-3.7h2v8.2h-2L119.8,46.4L119.8,46.4z"/>
	<rect x="123.1" y="40.3" fill="#003469" width="2" height="8.2"/>
	<path fill="#003469" d="M128.3,43.6L128.3,43.6c0,0,0,1,0,2.1v2.8h-2v-8.2h2l3.5,4.8l0,0c0,0,0-1.1,0-1.9v-2.8h2v8.2h-2L128.3,43.6
		z"/>
	<path fill="#003469" d="M138.6,40.3c2.4,0,4.3,1.7,4.3,4.1c0,2.5-1.9,4.1-4.3,4.1h-3.5v-8.2C135.1,40.3,138.6,40.3,138.6,40.3z
		 M138.5,46.6c1.2,0,2.4-0.6,2.4-2.2c0-1.6-1.2-2.3-2.4-2.3h-1.4v4.5H138.5z"/>
	<path fill="#003469" d="M145.4,45.9c0.2,0.6,0.7,1,1.6,1c0.7,0,1.2-0.3,1.2-0.8c0-0.8-1-0.7-2-1c-1.1-0.3-2.5-0.8-2.5-2.5
		s1.3-2.5,3.1-2.5c1.7,0,2.9,0.7,3.3,2.1l-1.9,0.5c-0.2-0.6-0.7-0.9-1.5-0.9c-0.7,0-1.1,0.3-1.1,0.7c0,0.7,0.8,0.8,1.9,1
		c1.2,0.2,2.5,0.7,2.5,2.5c0,1.7-1.2,2.5-3.2,2.5c-1.4,0-3-0.4-3.5-2.2L145.4,45.9z"/>
</g>
<g>
	<g>
		<path fill="#FFFFFF" d="M52.4,26.9L36.8,27v0.1c0,0.1,0,0.2,0,0.3c0,0,0,0,0,0.1s0,0.2,0,0.3l0,0l15.6,1.1h0.1
			C52.5,28.3,52.5,27.6,52.4,26.9L52.4,26.9z"/>
		<path fill="#FFFFFF" d="M17.9,51.5L17.9,51.5c0.8,0.3,1.6,0.5,2.4,0.7l0,0L23,41.4c-0.4-0.3-0.8-0.7-1.1-1L17.9,51.5z"/>
		<path fill="#FFFFFF" d="M6.9,43.9L6.9,43.9C7,43.9,7,44,6.9,43.9c0.5,0.6,1,1.1,1.5,1.6c0.1,0,0.1,0.1,0.2,0.2l0,0l9.7-10
			c-0.2-0.4-0.3-0.7-0.5-1.1L6.9,43.9z"/>
		<path fill="#FFFFFF" d="M22.3,52.6L22.3,52.6L22.3,52.6c0.1,0,0.1,0,0.2,0c0.7,0.1,1.3,0.2,2,0.2c0.1,0,0.1,0,0.2,0l0,0l0.5-7.8
			l-0.5,7.8l0.7-9.7c-0.5-0.3-1-0.6-1.4-0.9L22.3,52.6z"/>
		<path fill="#FFFFFF" d="M13.8,49.6L13.8,49.6c0.1,0,0.1,0.1,0.2,0.1l0,0c0.7,0.4,1.3,0.7,2,1l0,0l5-11.1c-0.3-0.3-0.6-0.7-0.9-1.1
			L13.8,49.6z"/>
		<path fill="#FFFFFF" d="M10.1,47L10.1,47c0.1,0.1,0.1,0.1,0.2,0.1c0.5,0.4,1.1,0.8,1.6,1.2l0,0c0.1,0,0.1,0.1,0.2,0.1l0,0
			l7.4-10.9c-0.2-0.3-0.5-0.7-0.7-1.1L10.1,47z"/>
		<path fill="#FFFFFF" d="M1.2,31.8L1.2,31.8c0,0.1,0,0.1,0,0.2l0,0c0.1,0.7,0.3,1.5,0.5,2.2L16.5,30c0-0.3-0.1-0.7-0.1-1L1.2,31.8z
			"/>
		<path fill="#FFFFFF" d="M4.3,40.2L4.3,40.2L4.3,40.2L4.3,40.2c0.4,0.7,0.8,1.2,1.2,1.8l0,0c0,0.1,0.1,0.1,0.1,0.2l0,0l11.8-8.6
			c-0.1-0.3-0.2-0.7-0.3-1L4.3,40.2z"/>
		<path fill="#FFFFFF" d="M16.7,30.8L2.4,36.1l0,0c0.3,0.8,0.6,1.5,1,2.3l0,0L17,31.8C16.8,31.5,16.7,31.1,16.7,30.8"/>
		<path fill="#FFFFFF" d="M46.5,43.6L46.5,43.6c0.1-0.1,0.1-0.1,0.1-0.2c0.4-0.5,0.8-1.1,1.2-1.6c0-0.1,0.1-0.1,0.1-0.2l0,0
			l-1.3-0.9c-0.6,0.5-1.2,1-1.8,1.5L46.5,43.6z"/>
		<path fill="#FFFFFF" d="M49,39.9L49,39.9c0-0.1,0.1-0.1,0.1-0.2l0,0c0.4-0.7,0.7-1.3,1-2l-0.7-0.3c-0.4,0.7-0.9,1.3-1.5,1.9
			L49,39.9z"/>
		<path fill="#FFFFFF" d="M16.4,27.3v-0.1l0,0L0.7,27.3c0,0.1,0,0.1,0,0.2c0,0.7,0.1,1.4,0.1,2l0,0c0,0.1,0,0.1,0,0.2l0,0l15.5-1.6
			c0-0.2,0-0.4,0-0.7C16.4,27.4,16.4,27.4,16.4,27.3"/>
		<path fill="#FFFFFF" d="M43.3,46.8L43.3,46.8c0.1-0.1,0.1-0.1,0.2-0.1c0.5-0.4,1-0.9,1.5-1.4l0.1-0.1l0,0l-1.9-1.9
			c-0.7,0.4-1.4,0.7-2.1,1L43.3,46.8z"/>
		<path fill="#FFFFFF" d="M34.4,45.5c-0.3,0-0.7,0-1,0l2.2,5.8l0,0c0.8-0.3,1.5-0.6,2.3-1l0,0l-2.4-4.9
			C35.1,45.5,34.8,45.5,34.4,45.5"/>
		<path fill="#FFFFFF" d="M26.7,53c0.1,0,0.2,0,0.2,0c0.7,0,1.4,0,2-0.1c0.1,0,0.1,0,0.2,0l0,0l-0.9-8.3c-0.6-0.2-1.1-0.4-1.7-0.7
			L26.7,53z"/>
		<path fill="#FFFFFF" d="M29.8,45l1.4,7.6c0.1,0,0.1,0,0.2,0l0,0c0.7-0.1,1.5-0.3,2.2-0.5l0,0l-1.9-6.6
			C31.1,45.2,30.5,45.1,29.8,45"/>
		<path fill="#FFFFFF" d="M39.6,49.4L39.6,49.4c0.1,0,0.1-0.1,0.2-0.1l0,0c0.6-0.3,1.1-0.7,1.7-1.1l0,0c0.1,0,0.1-0.1,0.1-0.1l0,0
			l-2.3-3.2c-0.7,0.2-1.4,0.4-2.2,0.5L39.6,49.4z"/>
		<path fill="#FFFFFF" d="M4.1,14.4L4.1,14.4c0,0.1-0.1,0.1-0.1,0.2l0,0c-0.4,0.7-0.7,1.3-1,2l0,0l14,6.3c0.1-0.3,0.2-0.7,0.3-1
			L4.1,14.4z"/>
		<path fill="#FFFFFF" d="M44,12.2l2.2-1.9l0,0l0,0l-0.1-0.1c-0.4-0.5-0.9-1-1.4-1.5l-0.1-0.1l0,0l0,0L42,11.2
			C42.7,11.5,43.4,11.8,44,12.2"/>
		<path fill="#FFFFFF" d="M48.8,14L48.8,14c0,0,0-0.1-0.1-0.1l0,0l0,0c-0.3-0.6-0.7-1.1-1.1-1.7l0,0c0-0.1-0.1-0.1-0.1-0.2l0,0l0,0
			l-1.9,1.4c0.6,0.5,1.2,1,1.7,1.6L48.8,14z"/>
		<path fill="#FFFFFF" d="M39.3,4.6L39.3,4.6c-0.1,0-0.1-0.1-0.2-0.1l0,0c-0.7-0.4-1.3-0.7-2-1l0,0l-2.7,6c0.7,0,1.4,0,2.1,0.1
			L39.3,4.6z"/>
		<path fill="#FFFFFF" d="M50.8,18.1L50.8,18.1c-0.3-0.8-0.6-1.5-1-2.3l0,0l-1.2,0.6c0.5,0.6,1,1.3,1.4,2L50.8,18.1z"/>
		<path fill="#FFFFFF" d="M52,22.4c0-0.1,0-0.1,0-0.2l0,0c-0.1-0.7-0.3-1.5-0.5-2.2l0,0l-0.6,0.2c0.3,0.7,0.6,1.5,0.9,2.3L52,22.4z"
			/>
		<path fill="#FFFFFF" d="M35.2,2.8L35.2,2.8c-0.8-0.3-1.6-0.5-2.4-0.7l0,0l-1.9,7.8c0.6-0.1,1.3-0.2,1.9-0.3L35.2,2.8z"/>
		<path fill="#FFFFFF" d="M43,7.2L43,7.2c-0.1-0.1-0.1-0.1-0.2-0.1c-0.5-0.4-1.1-0.8-1.6-1.2l0,0c-0.1,0-0.1-0.1-0.2-0.1l0,0
			L38.2,10c0.7,0.2,1.4,0.4,2.1,0.6L43,7.2z"/>
		<path fill="#FFFFFF" d="M13.5,4.8l-0.1,0.1l0,0l0,0c-0.6,0.3-1.1,0.7-1.7,1.1l0,0c0,0-0.1,0.1-0.2,0.1l0,0l8.1,11.2
			c0.2-0.3,0.5-0.7,0.7-1L13.5,4.8z"/>
		<path fill="#FFFFFF" d="M6.7,10.6L6.7,10.6c-0.1,0.1-0.1,0.1-0.1,0.2c-0.4,0.5-0.8,1.1-1.2,1.6l0,0c0,0.1-0.1,0.1-0.1,0.2l0,0l0,0
			L17.6,21c0.1-0.3,0.3-0.7,0.4-1L6.7,10.6z"/>
		<path fill="#FFFFFF" d="M19,18.2L9.8,7.4l0,0L9.7,7.5C9.2,8,8.7,8.5,8.2,9C8.1,9,8.1,9,8,9.1l0,0l0,0l10.4,10.1
			C18.6,18.9,18.8,18.5,19,18.2"/>
		<path fill="#FFFFFF" d="M21.9,1.7L21.9,1.7c-0.1,0-0.1,0-0.2,0l0,0C21,1.8,20.2,2,19.5,2.2l0,0l3.3,11.5c0.4-0.3,0.8-0.6,1.2-0.9
			L21.9,1.7z"/>
		<path fill="#FFFFFF" d="M26.4,1.3l-2.5,0.1L25,12.1c0.5-0.3,0.9-0.5,1.4-0.8V1.3z"/>
		<path fill="#FFFFFF" d="M17.5,2.9L17.5,2.9c-0.8,0.3-1.5,0.6-2.3,1l0,0l5.7,11.6c0.3-0.3,0.6-0.7,0.9-1L17.5,2.9z"/>
		<path fill="#FFFFFF" d="M30.9,1.6L30.9,1.6C30.8,1.6,30.8,1.6,30.9,1.6c-0.1,0-0.1,0-0.2,0c-0.7-0.1-1.3-0.2-2-0.2h-0.3l-0.6,9.4
			c0.5-0.2,1.1-0.4,1.7-0.6L30.9,1.6z"/>
		<path fill="#FFFFFF" d="M35,32.8l11.6,7.9c0.5-0.4,0.9-0.9,1.4-1.4l-12.6-7.2C35.3,32.4,35.2,32.6,35,32.8"/>
		<path fill="#FFFFFF" d="M18.1,21.4L17.6,21c-0.1,0.3-0.2,0.5-0.3,0.8l0.4,0.2C17.8,21.8,18,21.6,18.1,21.4"/>
		<path fill="#FFFFFF" d="M17.3,22.9L17,22.8c-0.1,0.3-0.1,0.5-0.2,0.8l0.2,0.1C17.1,23.4,17.2,23.2,17.3,22.9"/>
		<path fill="#FFFFFF" d="M50.9,35.8L50.9,35.8c0.3-0.8,0.5-1.6,0.7-2.4l-0.2-0.1c-0.3,0.8-0.6,1.5-1,2.3L50.9,35.8z"/>
		<path fill="#FFFFFF" d="M52,31.4l-15.4-2.6c0,0.3-0.1,0.5-0.2,0.8l15,3.8C51.5,33.4,51.8,32.6,52,31.4L52,31.4z"/>
		<path fill="#FFFFFF" d="M18.7,20.6c0.2-0.2,0.4-0.4,0.5-0.6l-0.8-0.8c-0.1,0.3-0.3,0.5-0.4,0.8L18.7,20.6z"/>
		<path fill="#FFFFFF" d="M33.9,34.2l9.3,9c0.6-0.3,1.1-0.6,1.6-1l-10.4-8.6C34.3,33.8,34.1,34,33.9,34.2"/>
		<path fill="#FFFFFF" d="M35.9,31.3L35.9,31.3l13.6,6.1c0.4-0.6,0.7-1.1,1-1.7l-14.3-5.1C36.1,30.8,36,31,35.9,31.3"/>
		<path fill="#FFFFFF" d="M20,19.3c0.2-0.2,0.4-0.3,0.6-0.5l-1.1-1.5c-0.2,0.3-0.4,0.5-0.5,0.8L20,19.3L20,19.3"/>
		<path fill="#FFFFFF" d="M22.1,17.9l-1.2-2.4c-0.2,0.3-0.5,0.5-0.7,0.8l1.2,2C21.6,18.2,21.9,18,22.1,17.9"/>
		<path fill="#FFFFFF" d="M32.6,35.4l6.8,9.5c0.6-0.2,1.2-0.4,1.7-0.6l-8-9.4C33,35.1,32.8,35.2,32.6,35.4"/>
		<path fill="#FFFFFF" d="M19.5,34.4l-1.2,1.2c0.2,0.3,0.3,0.6,0.5,0.9l1.3-1.5C19.9,34.8,19.7,34.6,19.5,34.4"/>
		<path fill="#FFFFFF" d="M26.6,37.3c-0.2,0-0.5,0-0.7,0l-0.3,3.9l-0.1,1.9c0.4,0.2,0.8,0.5,1.3,0.7L26.6,37.3L26.6,37.3"/>
		<path fill="#FFFFFF" d="M18.3,33.1l-0.8,0.6c0.1,0.3,0.2,0.6,0.3,0.9l1-0.8C18.6,33.5,18.5,33.3,18.3,33.1"/>
		<path fill="#FFFFFF" d="M22.4,36.4L21,39.6c0.3,0.3,0.5,0.6,0.8,0.9l1.3-3.7C22.9,36.6,22.7,36.5,22.4,36.4"/>
		<path fill="#FFFFFF" d="M20.9,35.6l-1.4,2c0.2,0.3,0.4,0.6,0.6,0.9l1.4-2.5C21.3,35.9,21.1,35.7,20.9,35.6"/>
		<path fill="#FFFFFF" d="M27.6,37.3l0.7,7.2c0.5,0.2,1,0.3,1.5,0.5l-1.4-7.8C28.2,37.2,27.9,37.2,27.6,37.3"/>
		<path fill="#FFFFFF" d="M16.4,28.2L16.4,28.2c0,0.3,0,0.5,0,0.8h0.1C16.5,28.7,16.5,28.4,16.4,28.2"/>
		<path fill="#FFFFFF" d="M31.7,35.9c-0.2,0.1-0.5,0.3-0.7,0.4l4.5,9.2c0.6,0,1.2-0.1,1.7-0.2L31.7,35.9z"/>
		<path fill="#FFFFFF" d="M24.1,37L23,41.4c0.3,0.3,0.7,0.5,1,0.8l0.9-5.1C24.6,37.1,24.3,37.1,24.1,37"/>
		<path fill="#FFFFFF" d="M16.8,29.9L16.5,30c0,0.3,0.1,0.5,0.1,0.8l0.3-0.1C16.9,30.4,16.8,30.2,16.8,29.9"/>
		<path fill="#FFFFFF" d="M17.4,31.6l-0.5,0.2c0.1,0.3,0.1,0.6,0.2,0.8l0.7-0.4C17.6,32,17.5,31.8,17.4,31.6"/>
		<path fill="#FFFFFF" d="M29.4,36.9l2.4,8.4c0.5,0.1,1.1,0.1,1.7,0.2l-3.3-8.8C29.9,36.8,29.6,36.9,29.4,36.9"/>
		<path fill="#FFFFFF" d="M23.8,17.3l-1-3.6c-0.3,0.3-0.6,0.5-0.9,0.8l1.1,3C23.3,17.5,23.5,17.4,23.8,17.3"/>
		<path fill="#FFFFFF" d="M24.7,17.1c0.1,0,0.3,0,0.4-0.1c0.1,0,0.3,0,0.4-0.1L25,12.1c-0.4,0.2-0.7,0.5-1.1,0.7L24.7,17.1
			L24.7,17.1z"/>
		<path fill="#FFFFFF" d="M31.6,18.2c0.1,0.1,0.2,0.1,0.3,0.2c0.1,0.1,0.2,0.1,0.3,0.2l0,0l5.9-8.8c-0.6-0.1-1.1-0.2-1.7-0.3
			L31.6,18.2L31.6,18.2"/>
		<polyline fill="#FFFFFF" points="32.3,18.7 32.3,18.7 32.3,18.7 32.3,18.7 		"/>
		<path fill="#FFFFFF" d="M33.1,19.2C33.1,19.3,33.1,19.3,33.1,19.2c0.2,0.1,0.3,0.2,0.4,0.3c0,0,0,0,0.1,0.1s0.1,0.1,0.2,0.2
			l8.3-8.6c-0.6-0.3-1.1-0.5-1.7-0.7L33.1,19.2z"/>
		<path fill="#FFFFFF" d="M34.4,20.6c0.2,0.2,0.3,0.4,0.4,0.6l0,0l10.7-7.8c-0.5-0.4-1-0.8-1.6-1.1L34.4,20.6
			C34.4,20.5,34.4,20.5,34.4,20.6"/>
		<path fill="#FFFFFF" d="M35.4,21.9c0.1,0.2,0.3,0.5,0.4,0.7l12.8-6.3c-0.4-0.5-0.8-1-1.3-1.5L35.4,21.9L35.4,21.9"/>
		<path fill="#FFFFFF" d="M36.4,24.3l14.5-4.1c-0.3-0.6-0.6-1.2-0.9-1.8l-13.8,5.2C36.2,23.8,36.3,24,36.4,24.3"/>
		<path fill="#FFFFFF" d="M26.6,16.9L26.6,16.9L26.6,16.9c0.2,0,0.3,0,0.5,0c0.1,0,0.1,0,0.2,0h0.1l0.4-6.2
			c-0.4,0.2-0.9,0.4-1.3,0.6L26.6,16.9C26.5,16.9,26.5,16.9,26.6,16.9"/>
		<path fill="#FFFFFF" d="M28.3,17.1L28.3,17.1c0.3,0,0.5,0.1,0.8,0.2l1.8-7.4c-0.5,0.1-1,0.2-1.5,0.4L28.3,17.1z"/>
		<path fill="#FFFFFF" d="M30,17.5c0.2,0.1,0.5,0.2,0.7,0.3l0,0l3.7-8.3l0,0c-0.5,0-1.1,0-1.6,0.1L30,17.5L30,17.5z"/>
		<path fill="#FFFFFF" d="M36.7,26l15.4-1.6c-0.1-0.7-0.3-1.3-0.5-2l-15.1,2.8C36.7,25.5,36.7,25.8,36.7,26"/>
		<path fill="#FFFFFF" d="M16.4,26.4L16.4,26.4L16.4,26.4L16.4,26.4L16.4,26.4c0-0.3,0.1-0.7,0.1-1l0,0c0-0.3,0.1-0.5,0.2-0.8h-0.1
			c0,0,0.2-0.9,0.2-1l0,0l0,0L2.2,18.5l0,0c-0.3,0.8-0.5,1.6-0.7,2.4l0,0l15.1,3.8c0,0.3-0.1,0.6-0.1,0.8L1.1,22.8c0,0,0,0,0,0.1V23
			c-0.1,0.7-0.2,1.3-0.2,2c0,0.1,0,0.1,0,0.2v0.1L16.4,26.4L16.4,26.4z"/>
	</g>
	<g>
		<g>
			<rect x="62.2" y="32.9" fill="#FFFFFF" width="87.9" height="1.4"/>
		</g>
		<path fill="#FFFFFF" d="M62.3,18.8V7.7H66v9.9c0,3.6,0.8,6.5,4.7,6.5c3.9,0,4.7-2.9,4.7-6.5V7.7h3.7v11.1c0,5.3-2.7,8.7-8.4,8.7
			C65,27.5,62.3,24,62.3,18.8"/>
		<path fill="#FFFFFF" d="M82.2,17.4c0-6.1,4.2-10.1,10-10.1c2.1,0,4.3,0.4,5.8,1.1l-0.4,3.4c-1.7-0.6-3.3-1.1-5.4-1.1
			c-4,0-6,2.8-6,6.7s2,6.7,6,6.7c2.1,0,3.7-0.5,5.4-1.1l0.4,3.4c-1.5,0.7-3.7,1.1-5.8,1.1C86.4,27.5,82.2,23.5,82.2,17.4"/>
		<polygon fill="#FFFFFF" points="102.6,16.2 102.6,7.4 104.3,7.4 104.3,14.7 108.2,14.7 108.2,16.2 		"/>
		<path fill="#FFFFFF" d="M110.5,13.4c0.2,1.2,1.1,1.7,2,1.7c0.6,0,1.5-0.2,2.1-0.5l0.1,1.3c-0.5,0.3-1.3,0.5-2.3,0.5
			c-2.5,0-3.7-1.5-3.7-3.3s1.2-3.3,3.3-3.3c1.7,0,3,1.1,3,2.7c0,0.3,0,0.6-0.1,0.9C114.9,13.4,110.5,13.4,110.5,13.4z M110.6,12.4
			h2.8c0-0.6-0.3-1.2-1.2-1.2C111.2,11.1,110.7,11.6,110.6,12.4"/>
		<path fill="#FFFFFF" d="M120.6,16.2v-0.4c-0.4,0.3-1,0.5-1.5,0.5c-2.1,0-2.9-1.3-2.9-3V9.9h1.7v3.4c0,1.2,0.4,1.7,1.4,1.7
			c0.6,0,1-0.2,1.3-0.5V9.9h1.7v6.3H120.6z"/>
		<polygon fill="#FFFFFF" points="127.1,16.2 125.6,16.2 123,9.9 124.7,9.9 126.4,14.3 128.1,9.9 129.7,9.9 		"/>
		<path fill="#FFFFFF" d="M131.7,13.4c0.2,1.2,1.1,1.7,2,1.7c0.6,0,1.5-0.2,2.1-0.5l0.1,1.3c-0.5,0.3-1.3,0.5-2.3,0.5
			c-2.5,0-3.7-1.5-3.7-3.3s1.2-3.3,3.3-3.3c1.7,0,3,1.1,3,2.7c0,0.3,0,0.6-0.1,0.9C136.1,13.4,131.7,13.4,131.7,13.4z M131.7,12.4
			h2.8c0-0.6-0.3-1.2-1.2-1.2C132.4,11.1,131.9,11.6,131.7,12.4"/>
		<path fill="#FFFFFF" d="M141.7,16.2v-3.4c0-1.2-0.4-1.7-1.4-1.7c-0.6,0-1,0.2-1.3,0.5v4.6h-1.7V9.9h1.6v0.4c0.4-0.3,1-0.5,1.5-0.5
			c2.1,0,2.9,1.2,2.9,3v3.4C143.3,16.2,141.7,16.2,141.7,16.2z"/>
		<polygon fill="#FFFFFF" points="102.6,27.2 102.6,18.3 104.3,18.3 104.3,25.6 108.2,25.6 108.2,27.2 		"/>
		<path fill="#FFFFFF" d="M109.1,18.3h1.7v1.6h-1.7V18.3z M109.1,20.9h1.7v6.3h-1.7V20.9z"/>
		<path fill="#FFFFFF" d="M121,27.2v-3.4c0-1.2-0.3-1.7-1.3-1.7c-1.1,0-1.4,0.6-1.4,1.2v3.9h-1.7v-3.4c0-1.4-0.4-1.7-1.4-1.7
			c-0.5,0-1,0.2-1.3,0.5v4.6h-1.7v-6.3h1.4l0.1,0.5c0.4-0.3,1-0.6,1.7-0.6c0.8,0,1.6,0.3,2.1,1c0.2-0.4,1-1,2.3-1
			c1.8,0,2.7,1.2,2.7,3v3.4H121z"/>
		<path fill="#FFFFFF" d="M125.8,26.8v0.4h-1.6v-9.5h1.7v3.5c0.4-0.3,0.9-0.4,1.6-0.4c2.2,0,3.3,1.5,3.3,3.3s-1.2,3.3-3.3,3.3
			C126.7,27.3,126.3,27.1,125.8,26.8 M125.8,24c0,1.2,0.5,2,1.6,2s1.7-0.8,1.7-2s-0.6-2-1.7-2C126.3,22,125.8,22.8,125.8,24"/>
		<path fill="#FFFFFF" d="M136.4,27.2v-0.4c-0.4,0.3-1,0.5-1.5,0.5c-2.1,0-2.9-1.3-2.9-3v-3.4h1.7v3.4c0,1.2,0.4,1.7,1.4,1.7
			c0.6,0,1-0.2,1.3-0.5v-4.6h1.7v6.3H136.4z"/>
		<path fill="#FFFFFF" d="M143.1,22.2h-0.6c-0.6,0-1.1,0.3-1.2,0.6v4.3h-1.7v-6.3h1.6v0.7c0.4-0.3,1-0.8,1.8-0.8h0.5L143.1,22.2z"/>
		<path fill="#FFFFFF" d="M143.7,28.5c0-0.6,0.4-1.1,1.1-1.4c-0.4-0.2-0.6-0.5-0.6-0.9s0.2-0.7,0.7-0.9c-0.7-0.5-1.1-1.2-1.1-2
			c0-1.4,1-2.5,2.8-2.5c0.6,0,1.1,0.1,1.6,0.4c0.3-0.1,0.8-0.3,1.5-0.3h0.4l-0.1,1h-0.6c-0.1,0-0.2,0-0.4,0c0.3,0.4,0.4,0.9,0.4,1.4
			c0,1.4-1,2.5-2.8,2.5c-0.3,0-0.5,0-0.7-0.1c-0.1,0-0.1,0.1-0.1,0.2c0,0.3,0.6,0.4,1.7,0.5c1,0.1,2.7,0.4,2.7,1.9
			c0,1.2-1.2,2-3.3,2C144.7,30.3,143.7,29.4,143.7,28.5 M146,27.4c-0.5,0.2-0.9,0.4-0.9,0.9c0,0.6,0.6,0.9,1.7,0.9
			c1.1,0,1.8-0.3,1.8-0.9s-1-0.7-1.8-0.8C146.6,27.5,146.3,27.5,146,27.4 M145.4,23.2c0,0.8,0.4,1.3,1.3,1.3c0.8,0,1.2-0.5,1.2-1.3
			s-0.4-1.3-1.2-1.3C145.8,21.9,145.4,22.4,145.4,23.2"/>
	</g>
</g>
</svg>
